<?xml version="1.0" encoding="utf-8"?>
<!-- Generator: Adobe Illustrator 16.0.3, SVG Export Plug-In . SVG Version: 6.00 Build 0)  -->
<!DOCTYPE svg PUBLIC "-//W3C//DTD SVG 1.1//EN" "http://www.w3.org/Graphics/SVG/1.1/DTD/svg11.dtd">
<svg version="1.1" xmlns="http://www.w3.org/2000/svg" xmlns:xlink="http://www.w3.org/1999/xlink" x="0px" y="0px" width="75px"
	 height="30px" viewBox="0 0 75 30" enable-background="new 0 0 75 30" xml:space="preserve">
<g id="Layer_1" display="none">
	<g id="BIT" display="inline">
		<path id="B_bottom" fill="#9A9A9A" d="M31.94,20.277c0,2.778-1.043,4.862-3.127,6.114c-1.736,1.111-4.031,1.601-6.949,1.601H7.13
			v-7.715v-1.319h4.934v1.319v3.058h9.798c1.599,0,2.781-0.14,3.406-0.417c1.111-0.417,1.668-1.318,1.737-2.71
			c0-0.765-0.14-1.319-0.487-1.808c1.112-0.277,3.059-0.976,4.379-2.435C31.593,17.221,31.94,18.54,31.94,20.277z"/>
		<path id="B_top" fill="#F49B00" d="M26.312,9.575c-0.07-1.25-0.625-2.084-1.668-2.501c-0.695-0.278-1.877-0.417-3.476-0.417
			h-9.104v2.918v2.919h9.104c1.599,0,2.78-0.139,3.476-0.417C25.687,11.66,26.241,10.826,26.312,9.575z M28.188,3.598
			c2.016,1.321,3.058,3.268,3.127,5.978c-0.07,2.71-1.112,4.657-3.127,5.977c-1.738,1.111-4.031,1.6-6.951,1.6H16.72v4.311
			l-4.657-4.311H7.2V9.575V2h14.038C24.087,2,26.45,2.556,28.188,3.598z"/>
		<rect id="I" x="37.013" y="2" fill="#F49B00" width="4.866" height="26.062"/>
		<polygon id="T" fill="#F49B00" points="59.669,28.2 54.734,28.2 54.734,6.656 46.673,6.656 46.673,2 67.87,2 67.87,6.656 
			59.669,6.656 		"/>
	</g>
</g>
<g id="Layer_1_copia">
	<g>
		<path id="B_bottom_1_" fill="#9A9A9A" d="M10.779,27.426l-4.11-10.484l3.623-0.076l2.474,6.689L10.779,27.426z"/>
		<polygon id="I_1_" fill="#F49B00" points="0.886,1.272 7.292,1.272 12.451,15.673 6.301,15.673 		"/>
		<polygon id="T_1_" fill="#F49B00" points="18.127,28.729 11.666,28.729 21.846,10.225 23.325,7.786 26.972,1.28 33.866,1.28 		"/>
		<g>
			<path id="B_bottom_2_" fill="#9A9A9A" d="M13.446,22.146l-2.05-5.28h1.413l1.337,3.832L13.446,22.146z"/>
		</g>
	</g>
</g>
</svg>
